<?xml version="1.0" encoding="utf-8"?>
<!-- Generator: Adobe Illustrator 18.0.0, SVG Export Plug-In . SVG Version: 6.00 Build 0)  -->
<!DOCTYPE svg PUBLIC "-//W3C//DTD SVG 1.1//EN" "http://www.w3.org/Graphics/SVG/1.1/DTD/svg11.dtd" [
	<!ENTITY ns_flows "http://ns.adobe.com/Flows/1.0/">
	<!ENTITY ns_extend "http://ns.adobe.com/Extensibility/1.0/">
	<!ENTITY ns_ai "http://ns.adobe.com/AdobeIllustrator/10.0/">
	<!ENTITY ns_graphs "http://ns.adobe.com/Graphs/1.0/">
]>
<svg version="1.1" id="Layer_1" xmlns:x="&ns_extend;" xmlns:i="&ns_ai;" xmlns:graph="&ns_graphs;"
	 xmlns="http://www.w3.org/2000/svg" xmlns:xlink="http://www.w3.org/1999/xlink" xmlns:a="http://ns.adobe.com/AdobeSVGViewerExtensions/3.0/"
	 x="0px" y="0px" viewBox="0 0 1400 980" enable-background="new 0 0 1400 980" xml:space="preserve">
<g>
	<rect fill="#FFF7D2" width="1400" height="980"/>
	<g>
		<path fill="#C4DDDD" d="M1097,776.6c62.2-76.6,98.9-171.1,98.9-273.4c0-255.6-229.3-462.8-512.2-462.8S171.5,247.6,171.5,503.2
			c0,102.3,36.7,196.8,98.9,273.4H1097z"/>
		<path fill="#FFFFFB" d="M374.5,394.7c0.5-0.6,1.1-1,2-1.3c-0.1-0.4-0.2-0.8-0.2-1.2c0-2.5,3-4.6,6.8-4.8c-0.3-0.6-0.4-1.2-0.4-1.8
			c0-3.5,4.5-6.3,10-6.3c4,0,7.5,1.5,9,3.7c1-0.4,2.1-0.6,3.3-0.6c2.7,0,5,1.1,6,2.6c1-0.5,2.2-0.7,3.5-0.7c1.1,0,2.1,0.2,2.9,0.5
			c1.8-1.6,4.7-2.6,8-2.6c5,0,9.1,2.4,9.8,5.4c0.6-0.1,1.3-0.1,2-0.1c4.4,0,8.1,2,8.8,4.7c0.4-0.1,0.8-0.1,1.2-0.1
			c2.6,0,4.8,1.1,5.4,2.7H374.5z"/>
		<path fill="#FFFFFB" d="M563.4,260.3c0.3-0.3,0.7-0.6,1.2-0.8c-0.1-0.2-0.1-0.5-0.1-0.7c0-1.5,1.8-2.8,4.2-2.9
			c-0.2-0.3-0.2-0.7-0.2-1.1c0-2.1,2.7-3.8,6.1-3.8c2.4,0,4.5,0.9,5.5,2.2c0.6-0.2,1.3-0.3,2-0.3c1.7,0,3.1,0.7,3.6,1.6
			c0.6-0.3,1.3-0.5,2.1-0.5c0.6,0,1.3,0.1,1.8,0.3c1.1-1,2.9-1.6,4.9-1.6c3,0,5.6,1.4,6,3.3c0.4-0.1,0.8-0.1,1.2-0.1
			c2.7,0,4.9,1.2,5.4,2.9c0.2,0,0.5-0.1,0.8-0.1c1.6,0,2.9,0.7,3.3,1.6H563.4z"/>
		<path fill="#FFFFFB" d="M931.4,456.8c-0.3-0.3-0.7-0.6-1.2-0.8c0.1-0.2,0.1-0.5,0.1-0.7c0-1.5-1.8-2.8-4.2-2.9
			c0.2-0.3,0.2-0.7,0.2-1.1c0-2.1-2.7-3.8-6.1-3.8c-2.4,0-4.5,0.9-5.5,2.2c-0.6-0.2-1.3-0.3-2-0.3c-1.7,0-3.1,0.7-3.6,1.6
			c-0.6-0.3-1.3-0.5-2.1-0.5c-0.6,0-1.3,0.1-1.8,0.3c-1.1-1-2.9-1.6-4.9-1.6c-3,0-5.6,1.4-6,3.3c-0.4-0.1-0.8-0.1-1.2-0.1
			c-2.7,0-4.9,1.2-5.4,2.9c-0.2,0-0.5-0.1-0.8-0.1c-1.6,0-2.9,0.7-3.3,1.6H931.4z"/>
		<ellipse fill="#8C8633" cx="741.6" cy="857.6" rx="516" ry="68.3"/>
		<path fill="#C9D2B9" d="M1207.8,763.2c-4.5-3.6-9.7-5-13.2-11.6c-2-3.8-3.4-9.1-5.1-13.6c-7-17.8-19-20.8-29.4-28.6
			c-4.9-3.6-7.9-12.7-12.7-15.8c-4.7-2.9-10.9,1.2-14.9-4.7c-4.6-6.9-4.6-25.7-9.6-32.1c-4-5.2-10.2-1-15.4-1.4
			c-6.2-0.5-11.1-7.9-13.5-20.3c-1.4-7.4-2-16.4-3.5-23.8c-1.4-7.5-4-13.6-7.9-12.9c-5,1-10.5,12.8-15.5,15
			c-8.5,3.8-11.6-20.1-19.5-22.2c-2.6-0.7-5.7,1.1-8.1-0.6c-4.8-3.4-5.6-19-9.5-26c-4.5-8.1-12-3.2-18.4,5.2
			c-6.4,8.4-12.4,20.1-18.8,26.8c-9.5,10-18.7,7.6-27.5,5c-11.4-3.3-23.7,1.2-34.8-3.4c-4.1-1.7-8-5.6-11.8-9.5
			c-10.5-10.7-21.2-21.4-32-31.9c-6.7-6.6-13.6-13.3-19-26.5c-3.6-8.9-6.4-20.5-10.2-28.8c-10.9-23.4-27.7-16.3-41-30.4
			c-7.7-8.1-14.4-23.1-22.7-27c-4-1.8-8.2-1-12.1-3.9c-8.3-6-14.3-27.7-23.1-30.9c-3.2-1.2-6.3,0.2-9.2,3.4
			c-3.2-3.3-6.7-4.8-10.4-3.7c-10,2.9-17.7,24.4-27.3,30.2c-4.5,2.7-9.3,1.8-13.9,3.5c-9.6,3.6-17.8,18.5-26.8,26.4
			c-15.6,13.7-34.5,6.3-47.7,29.4c-4.7,8.2-8.2,19.7-12.6,28.6c-6.5,13.1-14.6,19.7-22.5,26.2c-12.7,10.4-25.2,20.9-37.5,31.5
			c-4.5,3.9-9,7.7-13.7,9.4c-7,2.5-14.4,0.1-21.5,0.8c-29.5,2.8-53.1,54-83.2,28.9c-5.2-4.3-10.4-10.6-15.6-13
			c-10.1-4.6-18.4,6.2-28.2,5.2c-17.6-1.8-38.5-41.3-55.9-37.1c-8.4,2-14.2,14.3-18.4,28.4c-4.8,15.8-7.4,35.2-11.7,51.2
			c-4.6,17-11.4,30.3-18.9,39.2c-14,16.9-33.9,15.3-45,39.1c-2.1,4.6-3.9,10-6.2,13.9c-4.2,6.8-10.1,8.4-15.3,12.1
			c-5.2,3.8-9.9,10.6-10.1,24.5c41.8-11.2,83.8-21.1,126.1-29.6c121.7-23.1,245-34.9,368.3-35.6c30.7-0.2,61.4,0.4,92.2,1.6
			c104.5,4.2,208.7,16.5,311.8,36.9c37.1,7.8,74,16.7,110.6,26.6C1216.2,773.5,1212.3,766.8,1207.8,763.2z"/>
		<path fill="#AFB8A3" d="M912.4,753.2c-3.2-2.5-6.8-3.5-9.3-8.2c-1.4-2.7-2.4-6.4-3.6-9.6c-4.9-12.5-13.4-14.6-20.7-20.1
			c-3.4-2.6-5.6-9-9-11.1c-3.3-2.1-7.7,0.8-10.5-3.3c-3.3-4.9-3.3-18.1-6.7-22.6c-2.8-3.7-7.2-0.7-10.8-1c-4.3-0.3-7.8-5.6-9.5-14.3
			c-1-5.2-1.4-11.5-2.4-16.8c-1-5.3-2.8-9.6-5.6-9.1c-3.5,0.7-7.4,9-10.9,10.6c-6,2.7-8.1-14.1-13.7-15.6c-1.8-0.5-4,0.8-5.7-0.4
			c-3.3-2.4-3.9-13.4-6.7-18.3c-3.1-5.7-8.4-2.3-12.9,3.6c-4.5,5.9-8.7,14.1-13.2,18.8c-6.7,7-13.2,5.3-19.3,3.5
			c-8-2.3-16.7,0.8-24.5-2.4c-2.9-1.2-5.6-4-8.3-6.7c-7.4-7.5-14.9-15-22.5-22.4c-4.7-4.6-9.6-9.4-13.3-18.6
			c-2.5-6.3-4.5-14.4-7.2-20.2c-7.7-16.4-19.5-11.5-28.9-21.4c-5.4-5.7-10.1-16.3-16-19c-2.8-1.3-5.8-0.7-8.5-2.7
			c-5.8-4.2-10.1-19.5-16.2-21.7c-2.3-0.8-4.4,0.2-6.5,2.4c-2.3-2.3-4.7-3.4-7.3-2.6c-7.1,2-12.5,17.2-19.2,21.2
			c-3.2,1.9-6.5,1.2-9.8,2.5c-6.8,2.5-12.5,13-18.9,18.5c-11,9.6-24.2,4.4-33.6,20.7c-3.3,5.8-5.8,13.9-8.9,20.1
			c-4.6,9.2-10.3,13.9-15.8,18.4c-8.9,7.3-17.7,14.7-26.4,22.2c-3.2,2.7-6.3,5.4-9.7,6.6c-4.9,1.7-10.1,0.1-15.1,0.6
			c-20.7,1.9-37.3,38-58.5,20.4c-3.6-3-7.3-7.5-11-9.2c-7.1-3.2-13,4.3-19.8,3.7c-12.4-1.2-27.1-29-39.3-26.1
			c-5.9,1.4-10,10.1-12.9,20c-3.3,11.1-5.2,24.8-8.2,36c-3.2,11.9-8.1,21.3-13.3,27.6c-9.9,11.9-23.9,10.8-31.7,27.5
			c-1.5,3.2-2.7,7-4.4,9.8c-2.9,4.8-7.1,5.9-10.8,8.5c-3.6,2.6-6.9,7.5-7.1,17.2c29.4-7.9,59-14.8,88.7-20.8
			c85.6-16.2,172.3-24.6,259.1-25c21.6-0.1,43.2,0.3,64.8,1.1c73.5,3,146.8,11.6,219.3,26c26.1,5.5,52,11.7,77.8,18.7
			C918.4,760.4,915.6,755.7,912.4,753.2z"/>
		<ellipse fill="#D7D163" cx="683.7" cy="801.9" rx="564.6" ry="109.7"/>
		<ellipse fill="#D7D163"  a:adobe-blending-mode="multiply" cx="982.8" cy="752.3" rx="15.3" ry="3.2"/>
		<ellipse fill="#D7D163"  a:adobe-blending-mode="multiply" cx="937.4" cy="728.7" rx="7.3" ry="1.5"/>
		<ellipse fill="#D7D163"  a:adobe-blending-mode="multiply" cx="998.2" cy="727.2" rx="15.7" ry="3.3"/>
		<ellipse fill="#D7D163"  a:adobe-blending-mode="multiply" cx="859.1" cy="741.4" rx="15.3" ry="3.2"/>
		<ellipse fill="#D7D163"  a:adobe-blending-mode="multiply" cx="900.5" cy="730.2" rx="11.5" ry="2.4"/>
		<path fill="#BECB6F" d="M587.5,679.5c-22.8-23-33-63.8-33-63.8c13.1,15.8,24.3,10,24.3,10c-14.6-4.9-28.5-45.6-28.5-45.6
			c9.7,5.1,20.4-0.7,20.4-0.7c-20.1-15.6-34.1-60.3-34.1-60.3s-12.8,45.6-32.4,62.5c0,0,10.8,5,20.4-0.7c0,0-12.9,41.6-27.3,47.4
			c0,0,11.3,5,24-11.6c0,0-9.1,41.4-31.3,66c0,0,26.4,3.7,44.3-8l0,25.3h12.3l-1.3-24.5C563.1,684.6,587.5,679.5,587.5,679.5z"/>
		<path fill="#BECB6F" d="M631.3,687.5c-16.6-16.7-24-46.3-24-46.3c9.5,11.5,17.6,7.3,17.6,7.3c-10.6-3.6-20.7-33-20.7-33
			c7.1,3.7,14.8-0.5,14.8-0.5c-14.5-11.3-24.7-43.7-24.7-43.7s-9.3,33.1-23.5,45.3c0,0,7.8,3.7,14.8-0.5c0,0-9.3,30.1-19.8,34.4
			c0,0,8.2,3.6,17.4-8.4c0,0-6.6,30-22.7,47.9c0,0,19.2,2.7,32.1-5.8l0,18.3h8.9l-0.9-17.8C613.6,691.2,631.3,687.5,631.3,687.5z"/>
		<path fill="#A3B05A" d="M843,702.6c-16.6-16.7-24-46.3-24-46.3c9.5,11.5,17.6,7.3,17.6,7.3c-10.6-3.6-20.7-33-20.7-33
			c7.1,3.7,14.8-0.5,14.8-0.5c-14.5-11.3-24.7-43.7-24.7-43.7s-9.3,33.1-23.5,45.3c0,0,7.8,3.7,14.8-0.5c0,0-9.3,30.1-19.8,34.4
			c0,0,8.2,3.6,17.4-8.4c0,0-6.6,30-22.7,47.9c0,0,19.2,2.7,32.1-5.8l0,18.3h8.9l-0.9-17.8C825.3,706.3,843,702.6,843,702.6z"/>
		<path fill="#B9CCA8" d="M707.8,706.5c-7.3-7.3-10.5-20.3-10.5-20.3c4.2,5,7.7,3.2,7.7,3.2c-4.6-1.6-9.1-14.5-9.1-14.5
			c3.1,1.6,6.5-0.2,6.5-0.2c-6.4-4.9-10.8-19.1-10.8-19.1s-4.1,14.5-10.3,19.9c0,0,3.4,1.6,6.5-0.2c0,0-4.1,13.2-8.7,15.1
			c0,0,3.6,1.6,7.6-3.7c0,0-2.9,13.2-9.9,21c0,0,8.4,1.2,14.1-2.5l0,8h3.9l-0.4-7.8C700,708.1,707.8,706.5,707.8,706.5z"/>
		<path fill="#B9CCA8" d="M670.6,697.5c-7.3-7.3-10.5-20.3-10.5-20.3c4.2,5,7.7,3.2,7.7,3.2c-4.6-1.6-9.1-14.5-9.1-14.5
			c3.1,1.6,6.5-0.2,6.5-0.2c-6.4-4.9-10.8-19.1-10.8-19.1s-4.1,14.5-10.3,19.9c0,0,3.4,1.6,6.5-0.2c0,0-4.1,13.2-8.7,15.1
			c0,0,3.6,1.6,7.6-3.7c0,0-2.9,13.2-9.9,21c0,0,8.4,1.2,14.1-2.5l0,8h3.9l-0.4-7.8C662.8,699.1,670.6,697.5,670.6,697.5z"/>
		<path fill="#B9CCA8" d="M742.7,699.9c-4.6-4.6-6.7-12.9-6.7-12.9c2.6,3.2,4.9,2,4.9,2c-2.9-1-5.7-9.2-5.7-9.2c2,1,4.1-0.1,4.1-0.1
			c-4-3.1-6.9-12.1-6.9-12.1s-2.6,9.2-6.5,12.6c0,0,2.2,1,4.1-0.1c0,0-2.6,8.4-5.5,9.6c0,0,2.3,1,4.8-2.3c0,0-1.8,8.3-6.3,13.3
			c0,0,5.3,0.7,8.9-1.6l0,5.1h2.5l-0.3-4.9C737.7,700.9,742.7,699.9,742.7,699.9z"/>
		<path fill="#B4C5A5" d="M682.7,695.1c-4.6-4.6-6.7-12.9-6.7-12.9c2.6,3.2,4.9,2,4.9,2c-2.9-1-5.7-9.2-5.7-9.2c2,1,4.1-0.1,4.1-0.1
			c-4-3.1-6.9-12.1-6.9-12.1s-2.6,9.2-6.5,12.6c0,0,2.2,1,4.1-0.1c0,0-2.6,8.4-5.5,9.6c0,0,2.3,1,4.8-2.3c0,0-1.8,8.3-6.3,13.3
			c0,0,5.3,0.7,8.9-1.6l0,5.1h2.5l-0.3-4.9C677.8,696.1,682.7,695.1,682.7,695.1z"/>
		<path fill="#B4C5A5" d="M758.2,698.3c-4.6-4.6-6.7-12.9-6.7-12.9c2.6,3.2,4.9,2,4.9,2c-2.9-1-5.7-9.2-5.7-9.2c2,1,4.1-0.1,4.1-0.1
			c-4-3.1-6.9-12.1-6.9-12.1s-2.6,9.2-6.5,12.6c0,0,2.2,1,4.1-0.1c0,0-2.6,8.4-5.5,9.6c0,0,2.3,1,4.8-2.3c0,0-1.8,8.3-6.3,13.3
			c0,0,5.3,0.7,8.9-1.6l0,5.1h2.5l-0.3-4.9C753.3,699.4,758.2,698.3,758.2,698.3z"/>
		<path fill="#A3B05A" d="M434.8,682.4c-44.5-34.2-64.3-108.7-63.7-108.7c22.9,28.1,41.9,16.8,41.9,17c-26-7.1-48.5-81.4-47.8-81.9
			c16.2,10,34.9,0.5,34.9,0.6c-34.1-28.6-47.3-114.8-46.4-115c-0.8-0.3-33.4,81.2-67.4,113.5c0,0.1,18,10.6,34.9,0.4
			c-0.8-0.4-24.1,78.6-47.4,91.8c0.1,0.2,19.5,8.8,40.5-23.6c-0.5,0.1-13.9,78.7-44.3,132.7c0.1,0.2,45.6,1,73.3-24.5
			c1.8,15.7,3.9,31.4,6.3,47.1c6.9-1.1,13.8-2.2,20.7-3.3c-3.1-14.8-5.9-29.6-8.3-44.5C394.5,696.7,434.8,682.2,434.8,682.4z"/>
		<path fill="#6C7B35" d="M547.1,679.8c-45.9-35.3-66.4-112.2-65.8-112.2c23.6,29,43.3,17.3,43.2,17.5
			c-26.8-7.4-50.1-84.1-49.3-84.5c16.7,10.3,36,0.5,36,0.6c-35.2-29.5-48.8-118.5-47.9-118.7c-0.8-0.3-34.5,83.8-69.5,117.1
			c0,0.1,18.6,10.9,36,0.4c-0.8-0.4-24.9,81.1-48.9,94.7c0.1,0.2,20.1,9.1,41.8-24.3c-0.5,0.1-14.3,81.3-45.7,136.9
			c0.1,0.2,47.1,1,75.7-25.3c1.8,16.2,4,32.4,6.5,48.6c7.1-1.1,14.2-2.3,21.4-3.4c-3.2-15.2-6.1-30.5-8.6-45.9
			C505.4,694.6,547,679.5,547.1,679.8z"/>
		<path fill="#8A943C" d="M458.9,695c-27.7-21.3-40.1-67.7-39.7-67.7c14.3,17.5,26.1,10.5,26.1,10.6c-16.2-4.4-30.3-50.7-29.8-51
			c10.1,6.2,21.7,0.3,21.7,0.4c-21.2-17.8-29.5-71.6-28.9-71.7c-0.5-0.2-20.8,50.6-42,70.7c0,0.1,11.2,6.6,21.7,0.2
			c-0.5-0.3-15,49-29.5,57.2c0.1,0.1,12.1,5.5,25.2-14.7c-0.3,0-8.7,49.1-27.6,82.7c0,0.1,28.4,0.6,45.7-15.3
			c1.1,9.8,2.4,19.6,3.9,29.3c4.3-0.7,8.6-1.4,12.9-2c-1.9-9.2-3.7-18.4-5.2-27.7C433.8,703.9,458.9,694.8,458.9,695z"/>
		<path fill="#A3B05A" d="M542.8,695.3c-21.8-16.8-31.5-53.2-31.2-53.2c11.2,13.8,20.5,8.2,20.5,8.3c-12.7-3.5-23.8-39.9-23.4-40.1
			c7.9,4.9,17.1,0.2,17.1,0.3c-16.7-14-23.2-56.2-22.7-56.3c-0.4-0.2-16.4,39.8-33,55.5c0,0,8.8,5.2,17.1,0.2
			c-0.4-0.2-11.8,38.5-23.2,44.9c0,0.1,9.5,4.3,19.8-11.5c-0.3,0-6.8,38.5-21.7,64.9c0,0.1,22.3,0.5,35.9-12
			c0.9,7.7,1.9,15.4,3.1,23c3.4-0.5,6.8-1.1,10.1-1.6c-1.5-7.2-2.9-14.5-4.1-21.8C523.1,702.3,542.8,695.2,542.8,695.3z"/>
		<ellipse fill="#D7D163" cx="225.5" cy="870" rx="51.7" ry="11.6"/>
		<ellipse fill="#D7D163" cx="149.4" cy="896.7" rx="24.4" ry="5.5"/>
		<ellipse fill="#D7D163" cx="1254.8" cy="797.2" rx="24.4" ry="5.5"/>
		<ellipse fill="#D7D163" cx="1292.7" cy="811.2" rx="10.1" ry="2.3"/>
		
			<ellipse transform="matrix(1 2.787234e-003 -2.787234e-003 1 2.5447 -2.6631)" fill="#D7D163" cx="956.7" cy="911.6" rx="71.9" ry="16.1"/>
		<path fill="#BECB6F" d="M859.1,713.7c19.4-19.5,28-54.2,28-54.2c-11.1,13.4-20.6,8.5-20.6,8.5c12.3-4.2,24.2-38.7,24.2-38.7
			c-8.3,4.3-17.3-0.6-17.3-0.6c17-13.2,28.9-51.1,28.9-51.1s10.9,38.7,27.5,53c0,0-9.2,4.3-17.3-0.6c0,0,10.9,35.3,23.1,40.3
			c0,0-9.6,4.3-20.4-9.9c0,0,7.7,35.2,26.6,56c0,0-22.4,3.1-37.6-6.8l0,21.5H894l1.1-20.8C879.8,718,859.1,713.7,859.1,713.7z"/>
		<path fill="#91A251" d="M892.4,709.1c21.7-21.9,31.4-60.6,31.4-60.6c-12.4,15-23.1,9.5-23.1,9.5c13.8-4.7,27.1-43.3,27.1-43.3
			c-9.2,4.8-19.4-0.7-19.4-0.7c19.1-14.8,32.4-57.2,32.4-57.2s12.2,43.3,30.8,59.4c0,0-10.3,4.8-19.4-0.7c0,0,12.2,39.5,25.9,45.1
			c0,0-10.8,4.8-22.8-11c0,0,8.6,39.4,29.7,62.7c0,0-25.1,3.5-42.1-7.6l0,24h-11.6l1.2-23.3C915.6,713.9,892.4,709.1,892.4,709.1z"
			/>
		<path fill="#96A552" d="M958.3,711.2c19.4-19.5,28-54.2,28-54.2c-11.1,13.4-20.6,8.5-20.6,8.5c12.3-4.2,24.2-38.7,24.2-38.7
			c-8.3,4.3-17.3-0.6-17.3-0.6c17-13.2,28.9-51.1,28.9-51.1s10.9,38.7,27.5,53c0,0-9.2,4.3-17.3-0.6c0,0,10.9,35.3,23.1,40.3
			c0,0-9.6,4.3-20.4-9.9c0,0,7.7,35.2,26.6,56c0,0-22.4,3.1-37.6-6.8l0,21.5h-10.4l1.1-20.8C979.1,715.5,958.3,711.2,958.3,711.2z"
			/>
		<path fill="#A3B05A" d="M1035.4,705.2c42.7-43.1,61.8-119.3,61.8-119.3c-24.5,29.5-45.4,18.7-45.4,18.7
			c27.2-9.2,53.3-85.2,53.3-85.2c-18.2,9.5-38.1-1.3-38.1-1.3c37.5-29.1,63.7-112.6,63.7-112.6s23.9,85.2,60.6,116.8
			c0,0-20.2,9.4-38.1-1.3c0,0,24,77.7,51,88.7c0,0-21.2,9.4-44.8-21.7c0,0,17,77.4,58.5,123.3c0,0-49.4,6.9-82.8-15l0.1,47.3h-22.9
			l2.4-45.8C1081.1,714.7,1035.4,705.2,1035.4,705.2z"/>
		<path fill="#BECB6F" d="M794.7,697c-12.5-12.6-18-34.8-18-34.8c7.1,8.6,13.2,5.5,13.2,5.5c-7.9-2.7-15.5-24.9-15.5-24.9
			c5.3,2.8,11.1-0.4,11.1-0.4c-10.9-8.5-18.6-32.9-18.6-32.9s-7,24.9-17.7,34.1c0,0,5.9,2.8,11.1-0.4c0,0-7,22.7-14.9,25.9
			c0,0,6.2,2.7,13.1-6.3c0,0-5,22.6-17.1,36c0,0,14.4,2,24.1-4.4l0,13.8h6.7l-0.7-13.4C781.4,699.8,794.7,697,794.7,697z"/>
		<path fill="#8A943C" d="M800.5,716.2c28.9-29.1,41.8-80.7,41.8-80.7c-16.6,20-30.7,12.7-30.7,12.7c18.4-6.2,36.1-57.7,36.1-57.7
			c-12.3,6.4-25.8-0.9-25.8-0.9c25.4-19.7,43.1-76.2,43.1-76.2s16.2,57.7,41,79.1c0,0-13.7,6.4-25.8-0.9c0,0,16.3,52.6,34.5,60
			c0,0-14.3,6.4-30.3-14.7c0,0,11.5,52.4,39.6,83.5c0,0-33.4,4.7-56-10.1l0,32h-15.5l1.6-31C831.4,722.6,800.5,716.2,800.5,716.2z"
			/>
		<path fill="#6C7B35" d="M962.5,699.6c52.1-40.1,75.3-127.2,74.6-127.2c-26.8,32.9-49.1,19.6-49,19.9c30.4-8.3,56.8-95.3,55.9-95.8
			c-18.9,11.7-40.8,0.6-40.8,0.7c39.9-33.5,55.4-134.4,54.3-134.6c0.9-0.4,39.1,95,78.8,132.8c0,0.1-21.1,12.4-40.8,0.5
			c0.9-0.5,28.2,92,55.4,107.4c-0.1,0.2-22.8,10.3-47.4-27.6c0.6,0.1,16.2,92.1,51.9,155.3c-0.1,0.3-53.4,1.1-85.8-28.7
			c-2.1,18.4-4.5,36.8-7.4,55.1c-8.1-1.3-16.1-2.6-24.2-3.8c3.6-17.3,6.9-34.6,9.7-52C1009.7,716.4,962.5,699.4,962.5,699.6z"/>
		<ellipse fill="#D7D163"  a:adobe-blending-mode="multiply" cx="313.3" cy="745.7" rx="12.8" ry="2.7"/>
		<ellipse fill="#D7D163"  a:adobe-blending-mode="multiply" cx="218.7" cy="834.7" rx="38.3" ry="11"/>
		<ellipse fill="#D7D163"  a:adobe-blending-mode="multiply" cx="306.1" cy="768" rx="23.4" ry="5.8"/>
		<ellipse fill="#D7D163"  a:adobe-blending-mode="multiply" cx="430.6" cy="878.8" rx="23.4" ry="5.8"/>
		<g>
			<g>
				<path fill="#4D6B32" d="M305.8,747c0,0-2-6.8-6.1-9.7c0,0,7.4,4.7,8.2,8.4c0,0-1.1-5-2.3-6.7c0,0,2.6,3,3.9,6.7
					c0,0-5.1-16.6-6.7-18.7c0,0,7.8,11.2,8.5,18.8c0,0,2.4-10-3.2-15.2c0,0,6.6,6.1,7.1,14.2c0,0.1,0,0.1,0,0.2
					c0.3,8.2,0-11.8,5.1-17.6c0,0-3.6,11.3-1.8,17.3c0,0,1.4-9.1,9.4-13.3c0,0-6.6,7.1-7.2,15.6H305.8z"/>
				<path fill="#4D6B32" d="M306.7,747c0,0,0.2-2.4-0.6-3.5c0,0,1.2,0.7,1.6,2.9c0,0-0.2-3.7,0.9-5.5c0,0-0.4,2.7,0.3,4.4
					c0,0,0.8-1.1,0.5-2.6c0,0,0.4,0,0.8,2.9c0,0,0.2-4.6,0.9-6.7c0,0-0.4,5.8,0.7,6.9c0,0,1.4-1.6,1.2-3.5c0,0,0.6,0.2,1.3,2.8
					c0,0,0.5-3.3,1.5-4.6c0,0-1.1,3.6,0.3,4.9c0,0,1.1-1.8,0.8-3.2c0,0,0.6,0.8,1,2.9c0,0,0.4-2.9,1.2-3.8c0,0-0.5,2.4,0.4,3.7
					c0,0,1-2,1.8-2.8c0,0-0.7,3.4-0.4,4.7H306.7z"/>
			</g>
		</g>
		<g>
			<path fill="#969DBB" d="M319.1,758.5l-14.4-5.6l-10,3.7c0,0-5-0.1-5.6,1.3c-0.6,1.3,1.1,9.5,1.1,9.5l11.2,3.3l9.1,0.9l11.5-4.9
				L319.1,758.5z"/>
			<path fill="#868AA4" d="M322,766.6l-2.9-8.1l-0.4-0.3l-10.6,4.8l-6.3-2l-9.7,0.9l-3-3.3c0.5,2.5,1.1,8.7,1.1,8.7l11.2,3.3
				l9.1,0.9L322,766.6z"/>
			<polygon fill="#7A7C89" points="319.1,758.5 318.6,758.2 308.1,763 306.1,762.4 310.1,771.5 310.5,771.5 322,766.6 			"/>
		</g>
		<ellipse fill="#D7D163"  a:adobe-blending-mode="multiply" cx="247.7" cy="782.6" rx="41.3" ry="10.2"/>
		<path fill="#6C7B35" d="M389.5,690.3c-83.9-64.6-121.3-205-120.2-204.9c43.1,53.1,79.1,31.6,78.9,32
			c-49-13.5-91.6-153.6-90.1-154.4c30.5,18.9,65.8,0.9,65.8,1.1c-64.2-54-89.2-216.6-87.6-217c-1.5-0.6-63,153.2-127.1,214
			c0,0.2,33.9,20,65.8,0.7c-1.5-0.8-45.4,148.2-89.3,173.1c0.2,0.4,36.8,16.6,76.4-44.5c-1,0.1-26.2,148.5-83.6,250.2
			c0.1,0.4,86,1.8,138.3-46.2c3.3,29.6,7.3,59.2,11.9,88.8c13-2.1,26-4.1,39-6.2c-5.8-27.8-11.1-55.8-15.7-83.8
			C313.5,717.3,389.5,689.9,389.5,690.3z"/>
		<path fill="#4D6B32" d="M271.7,775.5c0.2-0.6-0.1-1.7-0.2-2.3c-0.1-2-0.1-4,0.1-6c0.3-4.6,1-9.1,2.7-13.4c1.1-2.8,2.5-5.5,4.5-7.7
			c0,0-9.9,6.1-10.8,20.6c-0.1,0.2-0.3,0.5-0.4,0.6c-0.1-0.2-0.2-0.4-0.4-0.6c-0.9-14.5-10.8-20.6-10.8-20.6
			c1.9,2.2,3.3,4.7,4.3,7.4c0.5,1.3,0.9,2.6,1.3,3.9c1,3.8,1.5,7.9,1.6,11.9c0,1.5,0,3-0.1,4.5c0,0.5-0.3,1.3-0.1,1.7
			c-4.3-14.5-14.1-20.1-14.1-20.1c10.2,10.7,10.2,25.2,10.2,25.2h7h1.9h7c0,0,0-14.5,10.2-25.2C285.8,755.5,276,761,271.7,775.5z"/>
		<g>
			<g>
				<path fill="#4D6B32" d="M221.5,789.7c0,0-3-10.1-9-14.4c0,0,11,7,12.2,12.5c0,0-1.7-7.4-3.5-9.9c0,0,3.8,4.4,5.8,10
					c0,0-7.5-24.7-9.9-27.7c0,0,11.6,16.6,12.7,27.9c0,0,3.6-14.8-4.7-22.6c0,0,9.8,9,10.5,21c0,0.1,0,0.2,0,0.3
					c0.5,12.2,0-17.6,7.5-26.2c0,0-5.3,16.7-2.6,25.7c0,0,2-13.5,14-19.7c0,0-9.9,10.6-10.7,23.2H221.5z"/>
				<path fill="#4D6B32" d="M222.9,789.7c0,0,0.3-3.6-0.9-5.2c0,0,1.8,1,2.4,4.3c0,0-0.3-5.4,1.3-8.1c0,0-0.7,4.1,0.4,6.5
					c0,0,1.1-1.7,0.7-3.9c0,0,0.7,0,1.2,4.3c0,0,0.3-6.8,1.3-9.9c0,0-0.6,8.6,1,10.2c0,0,2.1-2.4,1.8-5.1c0,0,0.9,0.4,1.9,4.1
					c0,0,0.7-4.9,2.2-6.9c0,0-1.7,5.4,0.4,7.2c0,0,1.7-2.6,1.1-4.7c0,0,0.9,1.2,1.4,4.3c0,0,0.6-4.4,1.8-5.7c0,0-0.8,3.6,0.6,5.5
					c0,0,1.5-3,2.7-4.1c0,0-1.1,5.1-0.6,7H222.9z"/>
			</g>
		</g>
		<g>
			<path fill="#969DBB" d="M242.8,818.1l-26.9-10.5l-18.7,6.9c0,0-9.3-0.1-10.4,2.4c-1.1,2.5,2.1,17.7,2.1,17.7l20.9,6.3l17.1,1.6
				l21.5-9.2L242.8,818.1z"/>
			<path fill="#868AA4" d="M248.3,833.3l-5.5-15.1l-0.8-0.6l-19.8,9l-11.7-3.7l-18.2,1.7l-5.6-6.2c0.9,4.8,2,16.2,2,16.2l20.9,6.3
				l17.1,1.6L248.3,833.3z"/>
			<polygon fill="#7A7C89" points="242.8,818.1 242,817.6 222.3,826.5 218.7,825.4 226.1,842.4 226.8,842.4 248.3,833.3 			"/>
		</g>
		<g>
			<path fill="#969DBB" d="M443.5,870.2l-14.4-5.6l-10,3.7c0,0-5-0.1-5.6,1.3c-0.6,1.3,1.1,9.5,1.1,9.5l11.2,3.3l9.1,0.9l11.5-4.9
				L443.5,870.2z"/>
			<path fill="#868AA4" d="M446.4,878.3l-2.9-8.1l-0.4-0.3l-10.6,4.8l-6.3-2l-9.7,0.9l-3-3.3c0.5,2.5,1.1,8.7,1.1,8.7l11.2,3.3
				l9.1,0.9L446.4,878.3z"/>
			<polygon fill="#7A7C89" points="443.5,870.2 443.1,869.9 432.5,874.7 430.6,874.1 434.6,883.1 434.9,883.2 446.4,878.3 			"/>
		</g>
		<path fill="#D7D163"  a:adobe-blending-mode="multiply" d="M1092.7,781.7c-51.1,0-92.9,9-96.9,20.4c-9-1.2-18.8-1.9-29.1-1.9
			c-30.8,0-57.4,6-69.9,14.7c-1.1,0.3-2.1,0.6-3.1,0.9c-18.9-16.1-69-27.6-127.9-27.6c-30.7,0-59,3.1-81.8,8.4
			c-21.8-10.3-57.1-17-97-17c-5.5,0-10.8,0.1-16.1,0.4c-0.9-8.6-21.3-16.1-51.9-20.7c40.3-4.2,68-13.1,68-23.3
			c0-14.3-54.1-25.9-120.8-25.9S345.5,721.7,345.5,736c0,8.8,20.6,16.6,52,21.3c-40.3,4.2-68,13.1-68,23.3
			c0,14.3,54.1,25.9,120.8,25.9c8.6,0,16.9-0.2,25-0.6c-5.2,4.6-8.1,9.6-8.1,14.9c0,19.9,41,36.5,95.6,40.4
			c-9.2,4.3-14.7,9.5-14.7,15.2c0,1.8,0.6,3.6,1.6,5.3c-4.9-0.5-10.7-0.9-16.9-0.9c-17.6,0-31.9,2.5-31.9,5.6
			c0,3.1,14.3,5.6,31.9,5.6c10.9,0,20.5-1,26.2-2.4c13.5,7.6,38.2,12.6,66.5,12.6c42.8,0,77.4-11.6,77.4-25.9c0-3.9-2.5-7.5-7-10.8
			c20.4,3.8,44.4,5.9,70,5.9c24.9,0,48.2-2.1,68.2-5.6c-2.3,2.5-3.6,5.1-3.6,7.8c0,14.3,34.7,25.9,77.4,25.9
			c42.8,0,77.4-11.6,77.4-25.9c0-3.6-2.2-7.1-6.2-10.2c9.8-2,18.2-4.8,24.8-8.1c2.9,2.4,11.8,4.2,22.4,4.2c12.9,0,23.4-2.6,23.4-5.8
			c0-3.2-10.5-5.8-23.4-5.8c-4.7,0-9,0.3-12.6,0.9c1.1-1,2-2,2.8-3c16.9-4.8,27.7-11.9,27.7-19.9c0-1-0.2-2-0.6-3
			c14.4,1.9,31.2,3,49.1,3c53.7,0,97.2-10,97.2-22.2C1189.9,791.7,1146.4,781.7,1092.7,781.7z"/>
		<path fill="#5A682F" d="M1010.5,715.1c83.9-64.6,121.3-205,120.2-204.9c-43.1,53.1-79.1,31.6-78.9,32
			c49-13.5,91.6-153.6,90.1-154.4c-30.5,18.9-65.8,0.9-65.8,1.1c64.2-54,89.2-216.6,87.6-217c1.5-0.6,63,153.2,127.1,214
			c0,0.2-33.9,20-65.8,0.7c1.5-0.8,45.4,148.2,89.3,173.1c-0.2,0.4-36.8,16.6-76.4-44.5c1,0.1,26.2,148.5,83.6,250.2
			c-0.1,0.4-86,1.8-138.3-46.2c-3.3,29.6-7.3,59.2-11.9,88.8c-13-2.1-26-4.1-39-6.2c5.8-27.8,11.1-55.8,15.7-83.8
			C1086.5,742.1,1010.5,714.6,1010.5,715.1z"/>
		<path fill="#4D6B32" d="M1041,844.2c0.3-1.2-0.3-3.3-0.3-4.5c-0.2-3.8-0.1-7.6,0.1-11.4c0.5-8.8,2-17.4,5.1-25.6
			c2-5.3,4.8-10.4,8.5-14.8c0,0-18.9,11.6-20.7,39.3c-0.3,0.5-0.5,0.9-0.7,1.2c-0.2-0.3-0.4-0.7-0.7-1.2
			c-1.7-27.7-20.7-39.3-20.7-39.3c3.6,4.2,6.3,9,8.3,14.1c1,2.4,1.8,4.9,2.5,7.5c2,7.3,2.9,15.2,3.1,22.8c0.1,2.9,0,5.8-0.1,8.6
			c0,0.9-0.5,2.5-0.3,3.3c-8.2-27.7-26.9-38.3-26.9-38.3c19.6,20.4,19.6,48.1,19.6,48.1h13.5h3.7h13.5c0,0,0-27.7,19.6-48.1
			C1067.9,805.9,1049.1,816.5,1041,844.2z"/>
		<ellipse fill="#D7D163"  a:adobe-blending-mode="multiply" cx="938.7" cy="765.3" rx="12.6" ry="1.7"/>
		<g>
			<path fill="#969DBB" d="M946.1,760.7l-6.7-2.6l-4.7,1.7c0,0-2.3,0-2.6,0.6c-0.3,0.6,0.5,4.4,0.5,4.4l5.2,1.6l4.2,0.4l5.3-2.3
				L946.1,760.7z"/>
			<path fill="#868AA4" d="M947.4,764.4l-1.4-3.8l-0.2-0.1l-4.9,2.2l-2.9-0.9l-4.5,0.4l-1.4-1.5c0.2,1.2,0.5,4,0.5,4l5.2,1.6
				l4.2,0.4L947.4,764.4z"/>
			<polygon fill="#7A7C89" points="946.1,760.7 945.9,760.5 941,762.8 940.1,762.5 941.9,766.7 942.1,766.7 947.4,764.4 			"/>
		</g>
		<path fill="#4D6B32" d="M543.3,874.1c0.4-1.4-0.3-4-0.4-5.5c-0.2-4.7-0.2-9.4,0.1-14c0.6-10.8,2.4-21.5,6.3-31.6
			c2.5-6.6,5.9-12.8,10.5-18.2c0,0-23.4,14.3-25.5,48.5c-0.3,0.6-0.6,1.1-0.9,1.5c-0.2-0.4-0.5-0.9-0.9-1.5
			c-2.1-34.2-25.5-48.5-25.5-48.5c4.4,5.1,7.7,11.1,10.2,17.4c1.2,3,2.2,6.1,3,9.2c2.4,9,3.6,18.7,3.8,28.1c0.1,3.6,0,7.1-0.2,10.7
			c-0.1,1.1-0.6,3-0.3,4.1c-10.1-34.2-33.2-47.3-33.2-47.3c24.1,25.1,24.1,59.3,24.1,59.3h16.6h4.5h16.6c0,0,0-34.2,24.1-59.3
			C576.4,826.8,553.3,839.9,543.3,874.1z"/>
		<ellipse fill="#D7D163"  a:adobe-blending-mode="multiply" cx="1049.3" cy="754" rx="16.2" ry="3.4"/>
		<g>
			<path fill="#868AA4" d="M1000.7,781.4l-5.1,0.3l-3.8,6.6l-5.3,2.7l-0.4,4.7l13.8,2.7c0,0,7.1,4.2,7.8,4.7
				c0.7,0.4,8.9-3.1,9.8-3.3c0.9-0.2,8.2-0.2,8.2-0.2l4.4-15.6L1000.7,781.4z"/>
			<path fill="#7A7C89" d="M996.3,791.4l0.4,2.7l-4.2-2l-6.4,3.4l0,0.2l13.8,2.7c0,0,1,0.6,2.4,1.4l-0.6-15L996.3,791.4z
				 M1020.9,785.4l-11.8,17.3c2.6-0.8,7.6-2.9,8.2-3.1c0.9-0.2,8.2-0.2,8.2-0.2l4.2-14.7L1020.9,785.4z"/>
			<polygon fill="#969DBB" points="1026.3,770.4 1013.3,773.7 999.3,777.4 995.6,781.7 1001.6,785.7 1024.3,787.1 1029.9,781.1 			
				"/>
			<path fill="#868AA4" d="M1074.9,736c0,0-27.7,11.7-33.3,14s-9.3,7.3-9.3,7.3l-10,25l-4,19l31,14.3c0,0,23,6,24,6
				c1,0,51-7.3,51-7.3l23.3-5.7l18.3-19.3c0,0-6.3-27-7-28.3c-0.7-1.3-13-15.3-14.7-16.3c-1.7-1-24.7-7-24.7-7L1074.9,736z"/>
			<polygon fill="#969DBB" points="1082.1,798.9 1065.6,797.8 1058.9,800.7 1061.2,804.3 1067.8,811.2 1075.4,810.3 1079.4,806.7 
							"/>
			<path fill="#7A7C89" d="M1147.4,758.3c0,0-1.3-7.1-2.5-13c-0.3-0.3-0.5-0.4-0.7-0.5c-0.8-0.5-6.6-2.1-12.4-3.7
				c-23.6,8.3-76.5,27.1-76.5,27.1l10.2,30l3.6-32.4l12.9,7.6v25.8l-6.4,7.8l-7.8,4.4c0,0-0.4,7.6,0.7,8.2c0.5,0.3,6.3,0.8,13.2,1.2
				c27.5-3.9,54.1-4.6,81.7-6.4c10.7-0.7,15.9-4,14.7-15.3c-1.3-11.7-19.7-18-28.5-23.7L1147.4,758.3z"/>
			<polygon fill="#65697C" points="1135.2,775.8 1137,780.7 1137.4,786.3 1139.6,779.6 1140,775.4 			"/>
			<path fill="#868AA4" d="M1092.9,793.6l8,8.7l2.7,4.4c0,0,10.2,2.4,10.9,2.7c0.7,0.2,8.9,3.1,8.9,3.1l1.1-8l-0.7-8L1092.9,793.6z"
				/>
			<polygon fill="#969DBB" points="1096.5,790.3 1092.9,793.6 1101.8,798.7 1111.6,798.9 1122.1,798.1 1122.1,794.9 			"/>
			<polygon fill="#65697C" points="1121.6,796.9 1123.4,812.5 1126.7,803.8 1129.4,790.7 			"/>
			<path fill="#969DBB" d="M1140.7,758.7l-3.3-8l4.7-3.1l0.8-3.4c-5.3-1.8-23.3-6.5-23.3-6.5l-44.7-1.7c0,0-27.7,11.7-33.3,14
				c-3,1.2-5.5,3.3-7.1,4.9l21.3,14.5l12.2-0.4l12.9,5.8l20.9,0.2l32.7-8.2L1140.7,758.7z"/>
			<path fill="#969DBB" d="M1074.5,751.2l11.8,1.1l8.8-3.1l14.3-1.6l5.3-4l4.6,4c0,0,1.6,5.1,1.6,6.9s-6.2,8.4-6.7,9.1
				c-0.5,0.7-17.8,10-18.7,10c-0.9,0-11.1-8.4-11.1-8.4L1074.5,751.2z"/>
			<path fill="#65697C" d="M1149.6,775.2l12,13.8l4.3,0.4l3.4-4.2l1.6-7.1c0,0-1.8-3.8-1.6-4.4
				C1169.6,772.9,1149.6,775.2,1149.6,775.2z"/>
			<polygon fill="#969DBB" points="1160.3,766.9 1168.7,770.3 1169.4,773.6 1158.7,774.5 1149.6,775.2 			"/>
			<path fill="#7A7C89" d="M1035.6,773.6l2.4-2l3.1,4.7c0,0-2,5.3-2,6s-3.8,9.3-3.8,9.3s-6-6-6.4-6.7c-0.4-0.7-5.8-6.2-5.8-6.2
				l-0.7-6.2L1035.6,773.6z"/>
			<path fill="#868AA4" d="M1030,774.9l3.8,6l2.2,6.2c0,0,1.8-11.8,1.8-12.4C1037.8,774,1030,774.9,1030,774.9z"/>
			<path fill="#969DBB" d="M1030.9,767.4l7.1,4.2l0.7,3.6l-6.2,0.4c0,0-5.6-1.8-6.7-1.8s-3.3-1.3-3.3-1.3l2.4-3.8L1030.9,767.4z"/>
			<polygon fill="#7A7C89" points="1116.1,741.4 1124.3,747 1125.3,752.9 1119.9,756 1107.1,758 1093.6,755.5 1115.1,749.7 
				1117.4,746.2 			"/>
			<polygon fill="#868AA4" points="1080.8,755 1087.3,754.7 1097.1,750.4 1110.3,749.5 1115.9,745.7 1115.1,739.7 1119.1,745.7 
				1119.3,752.2 1108.9,756.4 1095.3,756.2 1088.6,758.5 			"/>
			<path fill="#868AA4" d="M1129.4,790.7l-9.8-4.2c0,0-7.1,2-7.8,2.2c-0.7,0.2-15.2,1.4-15.2,1.4l8.8,5.2h10.2l6.4,2.7L1129.4,790.7
				z"/>
			<path fill="#868AA4" d="M1137.6,771.7c0,0-9.3,3.3-10.3,3.3c-1,0,3,1.3,3,1.3l6,0.3l3.7-1.3L1137.6,771.7z"/>
			<path fill="#7A7C89" d="M996.3,791.4l0.4,2.7l-4.2-2l-6.4,3.4l0,0.2l13.8,2.7c0,0,1,0.6,2.4,1.4l-0.6-15L996.3,791.4z
				 M1020.9,785.4l-11.8,17.3c2.6-0.8,7.6-2.9,8.2-3.1c0.9-0.2,8.2-0.2,8.2-0.2l4.2-14.7L1020.9,785.4z"/>
		</g>
		<path fill="#A3B05A" d="M913.1,715.7c37.2-32.3,50.6-98.6,50.1-98.5c-18.5,25.8-35.8,16.9-35.8,17.1c22.4-7.6,38.2-73.9,37.5-74.2
			c-13.6,9.6-30.5,2.3-30.5,2.3c28.3-26.8,35.4-103,34.6-103.2c0.7-0.3,33.5,69.3,65,95.8c0,0.1-15.2,10.2-30.5,2.2
			c0.7-0.4,25.2,67.5,46.3,77.9c-0.1,0.2-16.6,8.7-36.7-18.5c0.5,0,16.3,68.2,45.8,113.8c-0.1,0.2-39.9,3.2-65.5-17.6
			c-0.7,13.9-1.7,27.7-3.1,41.5c-6.1-0.6-12.2-1.2-18.3-1.8c1.9-13.1,3.6-26.2,4.9-39.4C949.2,726.1,913.1,715.5,913.1,715.7z"/>
		<g>
			<path fill="#FCE195" d="M1014.6,802.8c0,0,9.4-23.4-15.3-23.8c-24.7-0.4-33.2-6-73.2,8.5c-8.5,0-28.5-21.3-55.7-19.6
				c-27.2,1.7-69.8,74.9-19.6,84.2s94.9-6,94.9-6L1014.6,802.8z"/>
			<path fill="#FCD481" d="M842.7,795.2c-7,9.7-11.8,21.4-6.8,32.6c11.5,26,83.4-3.4,102.1-6c10.8-1.5,13.2,10.4,13.4,20.7l-5.7,3.6
				c0,0-44.7,15.3-94.9,6C816.9,845.8,825.3,815.1,842.7,795.2z"/>
			<path fill="#221F1F" d="M462.6,719.8c0,0,1.9-21.7-10.2-20.4c-12.1,1.3-36.4,4.5-48.5,3.2c-12.1-1.3-26.2-2.6-36.4-0.6
				c-10.2,1.9-19.8,16.6-12.8,30.6c7,14,33.8,13.4,33.8,13.4L462.6,719.8z"/>
			<path fill="#181616" d="M463,714.7c0,0,1.3-12.1-11.2-12.3c-12.5-0.2-28.4,2.9-39.8,2.2l-1.3,1.8c0,0-0.4,3.1,3.4,3.6
				c3.8,0.4,23.5-0.7,30.9-0.7c7.4,0,8.1,4.5,8.1,4.5L463,714.7z"/>
			<path fill="#FCE195" d="M523.2,708.3c0,0-86.2-4.5-134.7,12.8c-48.5,17.2-39.6,58.1-12.1,66.4c27.4,8.3,139.1,4.5,139.1,4.5
				S580,721.7,523.2,708.3z"/>
			<path fill="#FCD481" d="M474.7,715.6c-26.4,17-24.7,60.4-77.4,59.6c-18.5-0.3-31.4-2.1-40.4-4.2c3.7,7.7,10.6,13.8,19.6,16.6
				c27.4,8.3,139.1,4.5,139.1,4.5s3.4-3.7,8-9.7c5.4-20.6,9.8-43.7,9.8-43.7S501.1,698.5,474.7,715.6z"/>
			<path fill="#221F1F" d="M487.5,704.5c0,0,15.3-17.9,40.8-23c25.5-5.1,36.6,10.2,36.6,10.2l-2.6,23.8L487.5,704.5z"/>
			<path fill="#424440" d="M666.2,695.6c0,0-38.9-12.1-65.1-10.2c-26.2,1.9-91.9,4.5-116.8,19.1c-24.9,14.7-16.6,91.9-16.6,91.9
				l45.3,15.3L666.2,695.6z"/>
			<path fill="#686761" d="M724.9,711.3c0,0-23-11.1-52.8-14.5c-29.8-3.4-105.5,5.1-138.7,26.4s-34,87.6-34,87.6l19.6,15.3l40-10.2
				L724.9,711.3z"/>
			<path fill="#9A8B7A" d="M524.8,810.7c0,0-15.2-48.9,28.6-79.2c43.8-30.3,128.9-39.6,193.7-27c64.9,12.6,142.1,44.4,154.8,68.9
				c12.6,24.4,7.8,67.6-33.5,77.7c-41.3,10.1-169.3,6.7-220.7,0.8C596.4,846.1,534,833.4,524.8,810.7z"/>
			<path fill="#817766" d="M848.7,824.5c-63.2,3.8-130.2-6.4-130.2-6.4c-1.9-28.1-14.7-35.7-14.7-35.7s14,28.7,7,37
				c-7,8.3-12.8,0-12.8,0s-18.5-50.4-33.2-47.9c-14.7,2.6-38.9,12.1-70.2,10.2c-31.3-1.9-60-16.6-60-16.6
				c8.4-24.9,31.6-40.6,49.8-49.4c-11.7,4.4-22.3,9.7-31.1,15.8c-43.8,30.3-28.6,79.2-28.6,79.2c9.3,22.7,71.6,35.4,123,41.3
				c51.4,5.9,179.4,9.3,220.7-0.8c25.3-6.2,36.9-24.8,39.2-43.9C897.5,814.7,879.7,822.6,848.7,824.5z"/>
			<path fill="#FCE195" d="M518.1,802.8c0,0-9.4-23.4,15.3-23.8c24.7-0.4,33.2-6,73.2,8.5c8.5,0,28.5-18.7,55.7-17
				c27.2,1.7,69.8,72.3,19.6,81.7c-50.2,9.4-94.9-6-94.9-6L518.1,802.8z"/>
			<path fill="#FCD481" d="M690,795.2c7,9.7,11.8,21.4,6.8,32.6c-11.5,26-83.4-3.4-102.1-6c-10.8-1.5-13.2,10.4-13.4,20.7l5.7,3.6
				c0,0,44.7,15.3,94.9,6C715.8,845.8,707.4,815.1,690,795.2z"/>
			<path fill="#FCCA77" d="M791.4,767.4c0,0-5.9-13.1-18.3-12.4c-12.4,0.7-22.9,8.5-22.9,18.3c0,9.8,7.2,12.4,7.2,12.4L791.4,767.4z
				"/>
			<path fill="#FCCA77" d="M803.4,856.6c0,0,6.9,12.5,19.3,10.9c12.3-1.7,22.1-10.4,21.3-20.1c-0.8-9.8-8.2-11.8-8.2-11.8
				L803.4,856.6z"/>
			<path fill="#FCE195" d="M805.7,749.7c0,0-52.9,22.2-71.2,53.6c-18.3,31.4,5.9,69.9,51,63.4c45.1-6.5,75.1-33.3,79.7-59.5
				C869.8,781.1,845.6,738.6,805.7,749.7z"/>
			<path fill="#C2BB9A" d="M805.7,749.7c0,0-31.8,13.3-54.6,34c-1.8,8.7-6.5,37.5,3.1,53.6c11.5,19.1,17.9,23,17.9,23
				s3.6,3.8,11.6,6.7c0.6-0.1,1.2-0.1,1.8-0.2c45.1-6.5,75.1-33.3,79.7-59.5C869.8,781.1,845.6,738.6,805.7,749.7z"/>
			<path fill="#61491D" d="M851.3,759.8c0,0-8.1-3.4-18.3-0.9c-10.2,2.6-22.1,14-22.1,14l-3.8-3.4c0,0-20.4,13.6-31.1,21.3
				c-10.6,7.7-25.5,17.9-26.4,32.8c-0.9,14.9,13.2,33.6,13.2,33.6l-1.7-10.2c0,0-1.3,4.7,8.9,13.6c10.2,8.9,12.3,9.4,12.3,9.4
				l-4.3-6.8l9.4,5.1c0,0-1.3-6.8-0.9-9.4c0.4-2.6,6.8-10.6,8.1-11.5c1.3-0.9,1.3,6.8,1.7,8.1c0.4,1.3-1.7-5.5,8.9-10.2
				c10.6-4.7,17.4-14.5,17.9-15.7c0.4-1.3-2.6,8.9-2.6,8.9L830,827l-3,17.9c0,0,5.5-13.6,7.7-16.6c2.1-3-1.3,14.5-1.3,14.5
				s13.6-17,17.9-27.2c4.3-10.2,6-17.4,6-17.4v15.3c0,0,7.2-11.5,7.7-17.9C865.3,789.2,870,767,851.3,759.8z"/>
			<path fill="#FCCA77" d="M595.3,831.5c0,0,3.8-10.8,30-4.5c19.1,5.1,17.2,10.2,25.5,10.8c8.3,0.6,14.7,9.6,10.2,14
				c-4.5,4.5-21.7,1.3-21.7,1.3L595.3,831.5z"/>
			<path fill="#FCE195" d="M617.5,832.6l-30-30.2c0,0-23.4-28.9-59.6-23.8c-23,3.8-34.9,38.7-16.4,54.7c18.5,16,47.9,15.3,47.9,15.3
				L617.5,832.6z"/>
			<path fill="#61491D" d="M588.8,803.7c-13.1,2-30.6,6.9-40.4,19.1c-8.6,10.8-10.1,18.4-9.5,23.3c11.4,2.6,20.6,2.4,20.6,2.4
				l58.1-16L588.8,803.7z"/>
			<path fill="#FCE195" d="M564.1,833.4c0,0,16-10.2,34.5-11.5c18.5-1.3,49.8,24.9,53.6,30.6c3.8,5.7,13.4,15.3,16.6,20.4
				c3.2,5.1,2.6,14-7.7,12.8c-10.2-1.3-18.5-12.1-18.5-12.1s7,7.7,7,16c0,8.3-6.4,9.6-15.3,2.6c-8.9-7-14-18.5-14-18.5
				s5.1,17.2-3.2,19.8c-8.3,2.6-15.3-17.9-15.3-17.9s5.7,17.9-6.4,17.9c-12.1,0-6.4-9.6-16-17.9c-9.6-8.3-18.5-16-22.3-24.3
				C553.2,843,556.4,839.2,564.1,833.4z"/>
			<path fill="#FCD481" d="M652.1,852.6c-3.8-5.7-35.1-31.9-53.6-30.6c-18.5,1.3-34.5,11.5-34.5,11.5c-1.5,1.1-2.9,2.2-4,3.2
				c5.5-3.5,25.3-14.7,47.4-9.6c24.5,5.6,50,34.6,58.3,41.9C661.5,863.7,655.1,857,652.1,852.6z"/>
			<path fill="#FCD481" d="M596.6,867.2c2.6,4,5,9.6,6.1,12.4c-0.4-2.4-1-4.1-1-4.1s5.2,15.1,11.9,17.7c-1.2-2.4-2-7.4-4.6-11.9
				C606.2,876.2,593.1,861.8,596.6,867.2z M658.2,879.7c-8.3-2.2-20.7-15.3-20.7-15.3l6.3,10.7c2.7,3,9.4,9.7,17.3,10.6
				c3.5,0.4,5.8-0.3,7.3-1.7C665.7,882.4,662.1,880.7,658.2,879.7z M646.7,880c0,0,0.3,0.5,0.8,1.1c-1.2-2.5-2.5-4.5-3.5-5.8
				L646.7,880z"/>
			<path fill="#FCCA77" d="M620.7,875.4c-0.5-0.8-0.9-1.5-1.2-2.2c0.4,1,1,2.1,1.5,3.2C620.9,876.1,620.8,875.8,620.7,875.4z
				 M600.5,874.1c2.3,5,2.3,9.5,2.3,9.5s-3.4,3.4-13.6-0.4c-2-0.7-3.8-1.6-5.6-2.5c3.8,6.7,2.1,12.8,11.8,12.8
				c11,0,7.3-14.7,6.5-17.4C601.4,875.4,600.9,874.7,600.5,874.1z M595.1,865.3c0,0,2.2,4.2,5.3,8.7c-0.4-0.9-0.9-1.9-1.5-2.8
				C595.1,865.3,595.1,865.3,595.1,865.3z M618.1,870.4c0,0,0.5,1.2,1.4,2.8C618.7,871.6,618.1,870.4,618.1,870.4z M607.9,882.8
				c-2.1-1.9-4.2-4.3-6-6.7c1.2,3.2,7.6,19.6,15.1,17.3c3.3-1,4.5-4.4,4.7-8C619,886.6,613.3,887.5,607.9,882.8z M668.7,873
				c0-0.1-0.1-0.2-0.2-0.3c-1.3,1.5-3.5,3.1-7.1,4.5c-9.8,3.8-18.9-3.6-18.9-3.6s2.3,2.1,4.3,4.6c3.4,3.1,8.5,6.9,14.2,7.6
				C671.3,887,671.9,878.1,668.7,873z M630.9,885.3c-3-1-5.5-3.4-7.6-6.1c2.4,3.9,6.1,9,11,12.9c8.9,7,15.3,5.7,15.3-2.6
				c0-1.7-0.3-3.3-0.8-4.9C646.7,887.5,638,887.7,630.9,885.3z"/>
			<path fill="#FCCA77" d="M937.4,831.5c0,0-3.8-10.8-30-4.5c-19.1,5.1-17.2,10.2-25.5,10.8c-8.3,0.6-14.7,9.6-10.2,14
				c4.5,4.5,21.7,1.3,21.7,1.3L937.4,831.5z"/>
			<path fill="#FCE195" d="M915.2,832.6l30-30.2c0,0,23.4-28.9,59.6-23.8c23,3.8,34.9,38.7,16.4,54.7c-18.5,16-47.9,15.3-47.9,15.3
				L915.2,832.6z"/>
			<path fill="#61491D" d="M943.9,803.7c13.1,2,30.7,6.9,40.4,19.1c8.6,10.8,10.1,18.4,9.5,23.3c-11.4,2.6-20.6,2.4-20.6,2.4
				l-58.1-16L943.9,803.7z"/>
			<path fill="#FCE195" d="M968.6,833.4c0,0-16-10.2-34.5-11.5c-18.5-1.3-49.8,24.9-53.6,30.6c-3.8,5.7-13.4,15.3-16.6,20.4
				c-3.2,5.1-2.6,14,7.7,12.8c10.2-1.3,18.5-12.1,18.5-12.1s-7,7.7-7,16c0,8.3,6.4,9.6,15.3,2.6c8.9-7,14-18.5,14-18.5
				s-5.1,17.2,3.2,19.8c8.3,2.6,15.3-17.9,15.3-17.9s-5.7,17.9,6.4,17.9c12.1,0,6.4-9.6,16-17.9c9.6-8.3,18.5-16,22.3-24.3
				C979.5,843,976.3,839.2,968.6,833.4z"/>
			<path fill="#FCD481" d="M880.6,852.6c3.8-5.7,35.1-31.9,53.6-30.6c18.5,1.3,34.5,11.5,34.5,11.5c1.5,1.1,2.9,2.2,4,3.2
				c-5.5-3.5-25.3-14.7-47.4-9.6c-24.5,5.6-50,34.6-58.3,41.9C871.2,863.7,877.6,857,880.6,852.6z"/>
			<path fill="#FCD481" d="M923.6,881.3c-2.5,4.5-3.3,9.5-4.6,11.9c6.7-2.6,11.9-17.7,11.9-17.7s-0.6,1.7-1,4.1
				c1.1-2.8,3.5-8.4,6.1-12.4C939.6,861.8,926.5,876.2,923.6,881.3z M864.4,884.1c1.5,1.4,3.8,2.1,7.3,1.7c7.9-1,14.6-7.6,17.3-10.6
				l6.3-10.7c0,0-12.4,13.1-20.7,15.3C870.6,880.7,867,882.4,864.4,884.1z M888.8,875.3c-1,1.3-2.4,3.4-3.6,5.8
				c0.5-0.7,0.8-1.1,0.8-1.1L888.8,875.3z"/>
			<path fill="#FCCA77" d="M911.8,876.5c0.5-1.2,1-2.3,1.5-3.2c-0.3,0.7-0.8,1.4-1.2,2.2C911.9,875.8,911.9,876.1,911.8,876.5z
				 M930.8,876c-0.8,2.7-4.5,17.4,6.5,17.4c9.7,0,8-6.1,11.8-12.8c-1.8,0.9-3.6,1.8-5.6,2.5c-10.2,3.8-13.6,0.4-13.6,0.4
				s0-4.5,2.3-9.5C931.8,874.7,931.3,875.4,930.8,876z M933.7,871.3c-0.6,0.9-1.1,1.9-1.5,2.8c3.2-4.6,5.3-8.7,5.3-8.7
				S937.6,865.3,933.7,871.3z M913.2,873.3c0.9-1.7,1.4-2.8,1.4-2.8S914,871.6,913.2,873.3z M911,885.4c0.2,3.7,1.4,7,4.7,8
				c7.5,2.3,13.9-14.1,15.1-17.3c-1.8,2.4-3.8,4.8-6,6.7C919.4,887.5,913.7,886.6,911,885.4z M871.6,885.7
				c5.7-0.7,10.8-4.4,14.2-7.6c1.9-2.5,4.3-4.6,4.3-4.6s-9.1,7.4-18.9,3.6c-3.6-1.4-5.8-3-7.1-4.5c-0.1,0.1-0.1,0.2-0.2,0.3
				C860.8,878.1,861.4,887,871.6,885.7z M883.9,884.7c-0.5,1.6-0.8,3.2-0.8,4.9c0,8.3,6.4,9.6,15.3,2.6c4.9-3.8,8.6-9,11-12.9
				c-2,2.6-4.6,5.1-7.6,6.1C894.7,887.7,886,887.5,883.9,884.7z"/>
			<path fill="#FFF178" d="M431.8,698c-4,0-7.2,2.7-7.2,6.1c0,0.5,0.1,0.9,0.2,1.3c1.8,1.1,4.3,1.8,7,1.8c2.7,0,5.2-0.7,7-1.8
				c0.1-0.4,0.2-0.9,0.2-1.3C439,700.7,435.8,698,431.8,698z"/>
			<ellipse fill="#9A8B7A"  a:adobe-blending-mode="multiply" cx="634.9" cy="743.6" rx="32.5" ry="12.7"/>
			
				<ellipse transform="matrix(0.9977 6.741658e-002 -6.741658e-002 0.9977 49.3631 -47.132)" fill="#9A8B7A"  a:adobe-blending-mode="multiply" cx="723" cy="707.8" rx="32.5" ry="4.2"/>
			<g>
				<path fill="#8A6F3C" d="M702.3,697.8c0,0-8.2-0.2-7.5,1.1s13.9,4.1,15.7,5c1.8,0.9,27.3,2.5,28.9,2.5c1.6,0,8.4-1.4,10-1.4
					c1.6,0,4.1-2.3-2.3-3.2C740.7,701,715.9,697.6,702.3,697.8z"/>
				<path fill="#A78C51" d="M621.8,741.9l-3.9,3.6c0,0-0.7,1.8,0.2,5.7c0,0,10.7,6.1,24.3,2.5c13.6-3.6,8.4-9.1,11.4-11.4
					c3-2.3,2-3.2,2-3.2l-1.4-7c0,0-10,1.6-10.9,2C642.7,734.6,621.8,741.9,621.8,741.9z"/>
				<path fill="#8A6F3C" d="M653.3,737c0.8-0.7,1.4-1.5,1.8-2.3l-0.5-2.6c0,0-10,1.6-10.9,2c-0.9,0.5-21.8,7.7-21.8,7.7l-3.9,3.6
					c0,0-0.1,0.4-0.2,1.3c0.6,0.3,14.1,6.3,24.4,2.8C652.6,746.1,649.8,740.2,653.3,737z"/>
				<g>
					<circle fill="#775D28" cx="659.8" cy="453.1" r="78.7"/>
				</g>
				<g>
					<path fill="#61491D" d="M726.2,453.1c0,36.7-29.7,66.4-66.4,66.4c-36.7,0-66.4-29.7-66.4-66.4c0-36.7,29.7-66.4,66.4-66.4
						C696.5,386.7,726.2,416.4,726.2,453.1z"/>
				</g>
				<g>
					<path fill="#FCE195" d="M673,573.9c0,0,27.2,28.5,31.9,37.9c4.7,9.4-8.5,81.7-8.5,81.7s-4.3,7.2,7.7,9.8
						c11.9,2.6,26.4,2.6,36.6,2.6c10.2,0,11.9-1.6,2.6-8c-9.4-6.4-24.8-10.7-24.8-10.7s18.4-63,17.5-77.9
						c-0.9-14.9-34.5-58.7-34.5-58.7S670.9,543.7,673,573.9z"/>
				</g>
				<g>
					<path fill="#FCE195" d="M625.3,554.3c0,0-1.3,65.1,0,94.9c1.3,29.8,7.7,80,7.7,80s-13.2,3.8-14.9,9.4c-1.7,5.5,0.4,8.1,0.4,8.1
						s13.2,4.7,23.4,2.1c10.2-2.6,7.2-11.1,10.6-12.3c3.4-1.3,1.7-10.6-1.7-13.2c-3.4-2.6,0-58.7,0-73.6c0-14.9,9.4-89.8,9.4-89.8
						L625.3,554.3z"/>
				</g>
				<g>
					<path fill="#8A6F3C" d="M629.8,721.7c-0.1-0.3,0.1-0.6,0.4-0.7l0,0l7.5-2.6l-7.1-1.7c-0.3-0.1-0.5-0.3-0.5-0.6l0,0
						c0-0.3,0.2-0.5,0.4-0.6l0,0l7.1-2.5l-8.6-1.4c-0.3,0-0.5-0.3-0.5-0.6l0,0c0-0.3,0.2-0.6,0.5-0.6l0,0l10.9-3l-10.6-2.3
						c-0.3-0.1-0.5-0.3-0.5-0.6l0,0c0-0.3,0.2-0.5,0.4-0.6l0,0l6.2-2.3l-7.1-1.8v0c-0.3-0.1-0.6-0.4-0.5-0.8l0,0
						c0.1-0.3,0.4-0.6,0.8-0.5l0,0l8.9,2.3l12.3-4.5c0.3-0.1,0.7,0,0.8,0.4l0,0c0.1,0.3-0.1,0.7-0.4,0.8l0,0l-10.5,3.8l11.6,2.9
						c0.3,0.1,0.5,0.3,0.5,0.6l0,0c0,0.3-0.2,0.5-0.5,0.6l0,0l-6.1,1.7l5.6,1.2c0.3,0.1,0.5,0.3,0.5,0.6l0,0c0,0.3-0.2,0.5-0.4,0.6
						l0,0l-8.1,2.9l8.2,1.3c0.3,0,0.5,0.3,0.5,0.6l0,0c0,0.3-0.2,0.6-0.4,0.7l0,0l-8.8,3.1l8.6,2.1c0.3,0.1,0.5,0.4,0.5,0.7l0,0
						c0,0.3-0.3,0.6-0.6,0.6l0,0l-20.3,0.8c0,0,0,0,0,0l0,0C630.1,722.2,629.9,722,629.8,721.7L629.8,721.7z M634.7,720.8l11.4-0.4
						l-6-1.4L634.7,720.8L634.7,720.8z M633,715.9l7,1.7l8.3-2.9l-8-1.3L633,715.9L633,715.9z M632.2,710.7l8,1.3l8.2-2.9l-5.8-1.3
						L632.2,710.7L632.2,710.7z M631.8,704.2l10.8,2.4l6.1-1.7l-11-2.8L631.8,704.2L631.8,704.2z"/>
				</g>
				<g>
					<path fill="#8A6F3C" d="M719.7,685.9l-20-3.3c-0.3-0.1-0.5-0.3-0.5-0.6l0,0c0-0.3,0.2-0.6,0.6-0.6l0,0l6.2-0.8l-7.8-3.1
						c-0.3-0.1-0.4-0.4-0.4-0.7l0,0c0-0.3,0.3-0.5,0.6-0.6l0,0l9.5-1.2l-8.7-3.1c-0.3-0.1-0.5-0.4-0.4-0.7l0,0
						c0-0.3,0.3-0.5,0.6-0.6l0,0l10.4-1.3l-9.9-3.9c-0.3-0.1-0.4-0.4-0.4-0.7l0,0c0-0.3,0.3-0.5,0.5-0.6l0,0l9.8-1.3l-7.3-2.8l0,0
						c-0.3-0.1-0.5-0.5-0.4-0.8l0,0c0.1-0.3,0.5-0.5,0.8-0.4l0,0l9.5,3.7l11.7-1.6c0.4,0,0.7,0.2,0.7,0.5l0,0c0,0.4-0.2,0.7-0.5,0.7
						l0,0l-9.4,1.3l10.2,3.9c0.3,0.1,0.4,0.4,0.4,0.7l0,0c0,0.3-0.3,0.5-0.6,0.6l0,0l-10.2,1.3l7.9,3.1c0.3,0.1,0.4,0.4,0.4,0.7l0,0
						c0,0.3-0.3,0.5-0.6,0.6l0,0l-9.1,1.2l8.3,2.9c0.3,0.1,0.5,0.4,0.4,0.7l0,0c0,0.3-0.3,0.5-0.5,0.6l0,0l-10.4,1.4l9.1,3.6
						c0.3,0.1,0.5,0.5,0.4,0.8l0,0c-0.1,0.3-0.3,0.5-0.6,0.5l0,0C719.8,685.9,719.8,685.9,719.7,685.9L719.7,685.9z M704.1,682
						l9.9,1.6l-5.6-2.2L704.1,682L704.1,682z M700.8,677.2l7.7,3l10.1-1.4l-8.2-2.9L700.8,677.2L700.8,677.2z M701.9,671.6l8.6,3
						l9.2-1.2l-7.7-3L701.9,671.6L701.9,671.6z M702.3,665.2l9.8,3.8l10-1.2l-10-3.9L702.3,665.2L702.3,665.2z"/>
				</g>
				<g>
					<path fill="#67819D" d="M613.4,505c0,0-21.1,74.9-16.9,97.8c0,0,22.9,6.6,48.3,1.8l5.4-31.4l-1.2,33.6c0,0,23.5,1.3,34.4-5.3
						c10.9-6.6,10.9-6.6,10.9-6.6l-0.6-33.1l9.8,28.9c0,0,27.8-4.2,39.2-29.6c0,0-29.7-57.9-48.4-64.5
						C675.6,489.9,613.4,505,613.4,505z"/>
				</g>
				<g>
					<path fill="#C2BB9A" d="M693.4,393.5l22.1-27.2c0,0,19.6,6.8,26.8,23.4c0,0-27.7,36.2-37.9,50.2
						C694.3,453.9,693.4,393.5,693.4,393.5z"/>
				</g>
				<g>
					<path fill="#FCE195" d="M582.7,541c0,0,7.1,11.2,8.4,14.5c1.3,3.2-1,6.4-1.4,7.2c-0.4,0.8,1.6,5.8-1.4,7.4
						c-3,1.6-5.7-0.2-5.7-0.2s-5.4,4.5-8.3,1c0,0-3.5,2.8-6.2-0.7c0,0-4.2,0-6.7-3.7c-2.5-3.8-1-9.5-1.4-13.5
						c-0.4-4,10-11.4,10-11.4L582.7,541z"/>
				</g>
				<g>
					<path fill="#FAD188" d="M591.1,555.5c-0.2-0.4-0.4-1-0.8-1.6c-0.2,0.9-0.4,1.6-0.5,1.9c-0.6,1.5-1.9,3.8-1.9,3.8
						s1.3,0.9,0.9,3.8c-0.4,3-5.3,3.2-5.3,3.2s-3.8,1.3-7.4,1.3c-3.6,0-5.5,0.4-8.1,0c-1.4-0.2-3,0.3-4.6,0.5
						c2.3,1.7,4.8,1.7,4.8,1.7c2.7,3.6,6.2,0.7,6.2,0.7c2.8,3.5,8.3-1,8.3-1s2.7,1.9,5.7,0.2c3-1.7,1-6.6,1.4-7.4
						C590.1,561.9,592.4,558.7,591.1,555.5z"/>
				</g>
				<g>
					<path fill="#FCE195" d="M567.6,545.2c3.4,2.3,8.1,3.4,15.2,2.5c-0.3-15.5-0.2-49.8,2.2-57.4c2.9-9.4,21.5-40.4,21.5-40.4
						s-13.3-16.7-19.7-10.5c-6.4,6.2-18.7,42.2-21,56.8c-2.3,14.5,2,48.9,2,48.9S567.8,545.2,567.6,545.2z"/>
				</g>
				<g>
					<path fill="#FAD188" d="M582.7,541.4c-0.2-17,0.2-44.4,2.3-51.1c1.8-5.7,9.3-19.2,14.9-29.1c-0.7-1.9-1.2-3.3-1.2-3.3
						l-20.6,0.2c0,0,0.6,13.4,8.6,18.8c0,0-7.3,3.8-7,20.4C580,511.6,578.5,533.6,582.7,541.4z"/>
				</g>
				<g>
					<path fill="#C2BB9A" d="M627.5,403.3l-11.5-5.5c0,0-31.9,31.1-40.8,63c0,0,4.3,13.6,29.8,13.6l11.1-17L627.5,403.3z"/>
				</g>
				<g>
					<path fill="#C2BB9A" d="M702.8,396.1c0,0,2.6-3.3-18.8-6.2c-21.3-2.8-36.2-5.4-68,7.9l-3,28.9c0,0-6.3,54.5,2.6,81.5
						c0,0,24.5,14.5,53.9,6.4c29.4-8,30.2-15.7,30.2-15.7S711.2,408.1,702.8,396.1z"/>
				</g>
				<g>
					<path fill="#AA9F83" d="M736.8,380.9l-5.9,4.2c0,0,5.4,2.9,1.6,10.5c-3.8,7.7-29,32.9-29,32.9l-4.4-42l-4.3,5.3
						c-1.2-0.3-2.5-0.6-4-0.8l-10.6,119.9c0,0,0.5,0,1.2,0c17.6-6.5,18.2-11.9,18.2-11.9s4-31.7,5.6-60.1
						c10.8-14.7,37.1-49.1,37.1-49.1C740.9,386.4,739,383.5,736.8,380.9z"/>
				</g>
				<g>
					<path fill="#FCE195" d="M646.8,366.5c0,0,4.2,19.2,4.2,22.8c0,3.6-14,4.2-14,4.2s2.6,11.1,17.2,10.4
						c14.6-0.7,22.1-12.4,22.1-12.4s-8.8-1.6-12.4-2.3c-3.6-0.7-2.3-21.8-2.3-21.8L646.8,366.5z"/>
				</g>
				<g>
					<path fill="#FAD188" d="M654.9,388.9c3.3,0.9,8.4,1,12.4,0.9c-1.3-0.2-2.4-0.4-3.3-0.6c-2.4-0.4-2.6-10.1-2.5-16.4
						c-3.9-2.3-8.6-4.1-13.8-4.1c-0.2,0-0.3,0-0.5,0c1.1,5.2,3.7,17.7,3.7,20.5c0,3.6-14,4.2-14,4.2s0.3,1.4,1.4,3.2
						c4.5-1.6,10.9-3.3,10.9-0.6c0,4.2,6.8,6.2,6.8,6.2s-2.9-2-2.3-6.5C654.6,391.2,654.9,388.9,654.9,388.9z"/>
				</g>
				<g>
					<path fill="#4B6F89" d="M616,504.6l-5.2-1.6c0,0-2.8,6,2.8,10.1c5.6,4,27,14.5,58.7,4.4c31.8-10.1,32.6-16.9,32.6-16.9
						l-2.8-5.2C702.1,495.3,654.6,531.5,616,504.6z"/>
				</g>
				<g>
					<path fill="#FCE195" d="M736.2,263.8c0,0,2.9,61.7,0.1,71.1c-2.8,9.4-20.7,40.8-20.7,40.8s13.7,16.4,19.9,10.1
						c6.2-6.3,17.9-42.6,19.8-57.2c2-14.6-3-48.9-3-48.9s13.1-6.5,4.1-16.8C747.6,252.6,736.2,263.8,736.2,263.8z"/>
				</g>
				<g>
					<path fill="#FAD188" d="M749.3,277.3c0,0,5.7,40.6,3.2,59.3c-1.2,9.2-13.7,40.7-15.9,47.9c5.4-6.6,19-41.1,20.9-54.7
						c2-14.6-5.1-50-5.1-50s13.1-6.5,4.1-16.8c-0.3-0.3-0.5-0.5-0.8-0.8C757.9,271.2,749.3,277.3,749.3,277.3z"/>
				</g>
				<g>
					<path fill="#775D28" d="M743.9,330c-2.5-6.9-4.3-15.1-5.8-20.6l0,0c-1.3-4.3-3.2-5.2-6.6-5.4l0,0c-5.8-0.1-14.8,4.4-23.1,5.9
						l0,0c-0.5,0.1-0.9,0.1-1.3,0.1l0,0c-7.2-0.3-10.6-8.9-12.7-16.9l0,0c-2.1-8.1-2.7-16.1-2.7-16.1l0,0h0l2.5-0.2
						c0,0,0.6,7.9,2.6,15.7l0,0c2,7.9,5.7,15.2,10.2,15l0,0c0.3,0,0.6,0,0.9-0.1l0,0c7.8-1.3,16.6-5.9,23.5-5.9l0,0
						c4.1-0.1,7.8,2.1,9.1,7.3l0,0c1.5,5.6,3.3,13.7,5.7,20.4l0,0c2.3,6.8,5.6,11.6,8,11.3l0,0c0.8,0,1.7-0.3,2.9-1.3l0,0
						c1.7-1.5,4.1-5.9,4.1-12.4l0,0c0-10.4-5.7-26.4-27.6-45.5l0,0l-0.2-0.2l-0.1-0.3c-9.1-22.4-9.2-45.5-28.1-52l0,0l0.9-2.4
						c20.8,7.6,20.5,31.7,29.4,53.2l0,0c22.1,19.4,28.3,35.9,28.3,47.2l0,0c0,7.2-2.4,12.1-5,14.4l0,0c-1.5,1.3-3,1.9-4.5,1.9l0,0
						C749.3,342.7,746.5,336.8,743.9,330L743.9,330z"/>
				</g>
				<g>
					<path fill="#A78C51" d="M768.7,267.3c2.9,1.1,2.3,3.6,1.2,6.5l0,0c-1.1,2.9-2.3,5.1-5.2,4l-45.8-17.6c-2.9-1.1-4.3-4.4-3.2-7.3
						l0,0c1.1-2.9,4.4-4.4,7.3-3.2L768.7,267.3z"/>
				</g>
				<g>
					<g>
						<path fill="#FCE195" d="M735.2,249c0,0-3.5,17.9,1.9,16.3c5.4-1.6,8.2-14.3,5.2-17.6C739.4,244.4,735.2,249,735.2,249z"/>
					</g>
					<g>
						<path fill="#FCEACA" d="M735.4,260.2l4.3-2.3c0,0,0,3.7-2.3,5.8C735.1,265.7,735.4,260.2,735.4,260.2z"/>
					</g>
				</g>
				<g>
					<g>
						<path fill="#FCE195" d="M742.4,249.4c0,0-3.5,17.9,1.9,16.3c5.4-1.6,8.2-14.3,5.2-17.6C746.6,244.7,742.4,249.4,742.4,249.4z"
							/>
					</g>
					<g>
						<path fill="#FCEACA" d="M742.6,260.5l4.3-2.3c0,0,0,3.7-2.3,5.8C742.3,266.1,742.6,260.5,742.6,260.5z"/>
					</g>
				</g>
				<g>
					<g>
						<path fill="#FCE195" d="M754.9,257.1c0,0-8.2,16.3-2.6,16.2c5.6,0,11.7-11.6,9.8-15.6C760.2,253.8,754.9,257.1,754.9,257.1z"
							/>
					</g>
					<g>
						<path fill="#FCEACA" d="M752.1,267.9l4.7-1.1c0,0-1,3.5-3.8,5C750.3,273.2,752.1,267.9,752.1,267.9z"/>
					</g>
				</g>
				<g>
					<g>
						<path fill="#FCE195" d="M748.4,251.6c0,0-3.5,17.9,1.9,16.3c5.4-1.6,8.2-14.3,5.2-17.6C752.6,246.9,748.4,251.6,748.4,251.6z"
							/>
					</g>
					<g>
						<path fill="#FCEACA" d="M748.6,262.7l4.3-2.3c0,0,0,3.7-2.3,5.8C748.2,268.3,748.6,262.7,748.6,262.7z"/>
					</g>
				</g>
				<g>
					<path fill="#FCE195" d="M731.5,261.9c1.1-1.6,12,3,16.2,5.1c4.2,2.1,1.1,5.8-5.1,5.1c0,0-0.9,5.4-8.4,3.1
						C726.8,273,730.4,263.4,731.5,261.9z"/>
				</g>
				<g>
					<path fill="#FCEACA" d="M744.2,266.5l-0.6,3.1c0,0,3,0.8,3.7-0.7C748.1,267.3,744.2,266.5,744.2,266.5z"/>
				</g>
				<g>
					<path fill="#A78C51" d="M679.7,268.8c0,0,31.2-1,33.1-16.8c1.9-15.8-19.6-29.2-19.6-29.2s-0.9-5.4,4.6-7.5s28.3,24.2,25.8,38.9
						c-2.5,14.7-25.2,26.2-34.8,25.8C679.2,279.6,674.6,275.6,679.7,268.8z"/>
				</g>
				<g>
					<path fill="#775D28" d="M687.2,266.9c0,0,3.9,12.6,3.5,14.9c-0.3,2.3,7.4-3.2,7.4-3.2s-0.6-11.8-3.5-13.3
						C691.7,263.8,687.2,266.9,687.2,266.9z"/>
				</g>
				<g>
					<path fill="#775D28" d="M697.6,226.7l5.1,4.4c0,0,8.1-5.7,9.2-7.9c1.1-2.2-2.2-4.8-3.6-5.5C706.8,217,697.6,226.7,697.6,226.7z
						"/>
				</g>
				<g>
					<path fill="#61491D" d="M749.7,335.4c0,0,4.3,0.4,6.9-6.4c2.6-6.8,0.6-9.2,0.6-9.2s5.2,1.3,7.9,2.2c2.7,0.9,6.2,10.8-1.4,18.7
						c-7.6,7.9-11.7,5.3-11.7,5.3L749.7,335.4z"/>
				</g>
				<g>
					<path fill="#67819D" d="M687.6,388.7c0,0-72.8,105-77.7,109.8c-4.8,4.8,2.4,8.4,2.4,8.4s12.5,10.9,40.6,8
						c28.2-2.8,37.4-11.3,37.4-11.3s9.3-105.4,10.9-109.8C702.9,389.5,687.6,388.7,687.6,388.7z"/>
				</g>
				<g>
					<circle fill="#F9EE53" cx="690.8" cy="398.3" r="4"/>
				</g>
				<g>
					<path fill="#61491D" d="M682.6,334.8c0,0,4-3.2,3.8-9.5c-0.2-6.3-1-7.5,1-11.7c2-4.1,3.6-10.7-5.2-12.7c-8.9-1.9-13.9,1-16.3,1
						c-2.4,0-0.6-3.6-12.7-3.2c-12.1,0.5-16.5-0.2-23.1,8c-6.6,8.3-14.7,11.4-15.9,21.9c-1.2,10.5-5.4,22.1-1.4,26
						c4,3.9,7-1.7,8,2.9c1,4.6-6.2,6.6-1,13.9c5.2,7.3,7.4,0.7,9.3,6.3c1.8,5.6-1.8,8.6,6.4,7.6c8.3-1,21.5-0.7,23.1-2.4
						C660.3,381.3,682.6,334.8,682.6,334.8z"/>
				</g>
				<g>
					<path fill="#FCE195" d="M642.3,328.1c0,0,20.2,7.5,34.5-1.6l-2-2.3l8.1,1.6c0,0,9.4,37.7-2.6,52c-12,14.3-32.8,8.1-39.3-12
						c0,0-8.5,10.4-13.3,0.7c-4.9-9.8,3.3-13,7.2-11.7l9.4,6.2l-0.3-5.2c0,0-4.2,1-5.5-8.5C637.1,337.9,642.3,328.1,642.3,328.1z"/>
				</g>
				<g>
					<path fill="#61491D" d="M678.2,376.6c-0.2-5-0.2-6.2-1-7.2c-0.8-1-2.3-1.8-5.4-1.6c0,0-6,0.5-9.1,2.6
						c-3.1,2.1-1.3,13.2-0.3,14.6c1,1.5,5.2,0.8,5.9,0.8c0.6,0,7-1.1,8.3-2.6C677.9,381.8,678.4,381.6,678.2,376.6z M673.5,374.7
						c-3.2,5-7.3,1-7.3,1s-1-0.5,0.3-2.2c1.3-1.6,2.7,3.9,7.2-1.1C675.5,373.1,676.4,373.5,673.5,374.7z"/>
				</g>
				<g>
					<ellipse fill="#61491D" cx="659.1" cy="347.8" rx="2.2" ry="3.3"/>
				</g>
				<g>
					<ellipse fill="#61491D" cx="676.3" cy="345.4" rx="2.2" ry="3.3"/>
				</g>
				<g>
					<path fill="#61491D" d="M650.6,338.9l10.9,2.5l1-3.3c0,0-5.5-5.9-8.4-4.7C651.2,334.8,650.6,338.9,650.6,338.9z"/>
				</g>
				<g>
					<path fill="#61491D" d="M683.9,340.1l-10.9,2.5l-1-3.3c0,0,5.5-5.9,8.4-4.7C683.3,335.9,683.9,340.1,683.9,340.1z"/>
				</g>
				<path fill="#8A6F3C" d="M724.4,688.7c0,0-15.9,2.5-15.7,13.2l2.7,1.4c0,0,3.4-9.3,19.3-12.7L724.4,688.7z"/>
				<path fill="#8A6F3C" d="M737.5,693.6c0,0-13.2,2.1-13.1,10l3.5,0.8c0,0,1.9-6.3,13.7-8.8L737.5,693.6z"/>
				
					<rect x="700.9" y="656.5" transform="matrix(0.988 0.1546 -0.1546 0.988 110.4512 -102.4535)" fill="#A78C51" width="26.4" height="5.2"/>
				
					<rect x="695.9" y="681.9" transform="matrix(0.9978 6.656020e-002 -6.656020e-002 0.9978 47.1333 -45.6816)" fill="#A78C51" width="26.4" height="5.2"/>
				
					<rect x="628" y="694.6" transform="matrix(0.9985 -5.415753e-002 5.415753e-002 0.9985 -36.8195 35.6784)" fill="#A78C51" width="23.9" height="5.2"/>
				
					<rect x="628" y="719.5" transform="matrix(0.9985 -5.415753e-002 5.415753e-002 0.9985 -38.1672 35.7149)" fill="#A78C51" width="23.9" height="5.2"/>
				<path fill="#A78C51" d="M694.8,698.9l0.2,4.3c0,0,13.6,3.4,33.9,5.2c20.2,1.8,23.2-0.7,23.2-0.7l-0.9-4.5c0,0-6.4,2-25.9-0.2
					C705.7,700.8,694.8,698.9,694.8,698.9z"/>
				<path fill="#8A6F3C" d="M619.2,736.8c0,0,1.3-2.3,14.2-1c13,1.4,14.7,9.9,14.7,9.9s1.8-1.8,2.7-3.6c0.8-1.8-3.1-7.8-12.2-10
					c-9.1-2.2-15.5,0.2-15.5,0.2s-3.7,3.2-4,3.7C618.6,736.6,619.2,736.8,619.2,736.8z"/>
				<path fill="#8A6F3C" d="M630,730c0,0,2.8-1.1,10.6,1c7.9,2,11.3,7,11.3,7l1-0.7c0,0-1.8-5.4-8.8-7.2c-7-1.8-11.9-1.4-11.9-1.4
					S630.1,728.9,630,730z"/>
			</g>
		</g>
		<path fill="#4D6B32" d="M392.2,794c0.1-0.4-0.1-1.1-0.1-1.5c-0.1-1.3,0-2.5,0-3.8c0.2-2.9,0.6-5.8,1.7-8.5
			c0.7-1.8,1.6-3.4,2.8-4.9c0,0-6.3,3.8-6.8,13c-0.1,0.2-0.2,0.3-0.2,0.4c-0.1-0.1-0.1-0.2-0.2-0.4c-0.6-9.2-6.8-13-6.8-13
			c1.2,1.4,2.1,3,2.7,4.7c0.3,0.8,0.6,1.6,0.8,2.5c0.7,2.4,1,5,1,7.5c0,1,0,1.9,0,2.9c0,0.3-0.2,0.8-0.1,1.1
			c-2.7-9.2-8.9-12.7-8.9-12.7c6.5,6.7,6.5,15.9,6.5,15.9h4.4h1.2h4.4c0,0,0-9.2,6.5-15.9C401.1,781.3,394.9,784.8,392.2,794z"/>
		<circle fill="#FDF27D" cx="926.1" cy="171.9" r="65"/>
		<path fill="#FFFFFB" d="M751.7,136.8c0.9-1.1,2.2-2,3.9-2.6c-0.3-0.7-0.5-1.5-0.5-2.3c0-4.9,5.8-8.8,13.3-9.3
			c-0.5-1.1-0.8-2.3-0.8-3.5c0-6.8,8.7-12.3,19.4-12.3c7.8,0,14.5,2.9,17.6,7.1c1.9-0.7,4-1.1,6.4-1.1c5.3,0,9.8,2.1,11.6,5
			c1.9-0.9,4.2-1.5,6.7-1.5c2.1,0,4,0.4,5.6,1c3.5-3.1,9.2-5.1,15.6-5.1c9.7,0,17.7,4.6,19,10.5c1.2-0.2,2.5-0.3,3.8-0.3
			c8.6,0,15.7,4,17.1,9.2c0.8-0.1,1.6-0.2,2.4-0.2c5.1,0,9.4,2.2,10.6,5.2H751.7z"/>
		<path fill="#FFFFFB" d="M1020,240.6c-0.8-0.9-1.9-1.7-3.3-2.2c0.2-0.6,0.4-1.3,0.4-1.9c0-4.1-5-7.5-11.3-7.9
			c0.4-0.9,0.7-1.9,0.7-2.9c0-5.8-7.4-10.4-16.5-10.4c-6.6,0-12.3,2.5-14.9,6.1c-1.6-0.6-3.4-0.9-5.4-0.9c-4.5,0-8.3,1.8-9.9,4.3
			c-1.6-0.8-3.6-1.2-5.7-1.2c-1.8,0-3.4,0.3-4.8,0.8c-3-2.6-7.8-4.4-13.3-4.4c-8.3,0-15.1,3.9-16.2,8.9c-1-0.1-2.1-0.2-3.3-0.2
			c-7.3,0-13.4,3.4-14.5,7.8c-0.7-0.1-1.3-0.1-2-0.1c-4.3,0-8,1.9-9,4.4H1020z"/>
	</g>
</g>
</svg>
